<svg width="100" height="100" viewBox="0 0 100 100" fill="none" xmlns="http://www.w3.org/2000/svg">
<rect width="100" height="100" fill="white"/>
<rect x="22" y="22" width="56" height="56" rx="14" stroke="black" stroke-width="4"/>
<path d="M33.666 60.208C33.1287 60.208 32.7127 60.0607 32.418 59.766C32.1407 59.454 32.002 59.0293 32.002 58.492V43.36C32.002 42.8053 32.1493 42.3893 32.444 42.112C32.7387 41.8173 33.1547 41.67 33.692 41.67H39.958C41.9687 41.67 43.52 42.1553 44.612 43.126C45.704 44.0793 46.25 45.4227 46.25 47.156C46.25 48.2827 45.9987 49.2533 45.496 50.068C45.0107 50.8827 44.3 51.5067 43.364 51.94C42.428 52.3733 41.2927 52.59 39.958 52.59L40.192 52.2H41.05C41.7607 52.2 42.376 52.3733 42.896 52.72C43.4333 53.0667 43.9013 53.6127 44.3 54.358L46.25 57.972C46.458 58.336 46.5533 58.6913 46.536 59.038C46.5187 59.3847 46.3887 59.6707 46.146 59.896C45.9033 60.104 45.548 60.208 45.08 60.208C44.612 60.208 44.2307 60.1127 43.936 59.922C43.6413 59.714 43.3813 59.402 43.156 58.986L40.53 54.15C40.218 53.5607 39.8453 53.1707 39.412 52.98C38.996 52.772 38.4587 52.668 37.8 52.668H35.33V58.492C35.33 59.0293 35.1913 59.454 34.914 59.766C34.6367 60.0607 34.2207 60.208 33.666 60.208ZM35.33 50.198H39.386C40.582 50.198 41.4833 49.9553 42.09 49.47C42.714 48.9673 43.026 48.222 43.026 47.234C43.026 46.2633 42.714 45.5353 42.09 45.05C41.4833 44.5473 40.582 44.296 39.386 44.296H35.33V50.198ZM51.3862 60.208C50.9009 60.208 50.5282 60.0693 50.2682 59.792C50.0082 59.5147 49.8782 59.1333 49.8782 58.648V43.022C49.8782 42.5193 50.0169 42.138 50.2942 41.878C50.5716 41.6007 50.9529 41.462 51.4382 41.462C51.8716 41.462 52.2096 41.5487 52.4522 41.722C52.7122 41.878 52.9462 42.1553 53.1542 42.554L59.5762 54.436H58.7442L65.1662 42.554C65.3742 42.1553 65.5996 41.878 65.8422 41.722C66.0849 41.5487 66.4229 41.462 66.8562 41.462C67.3416 41.462 67.7142 41.6007 67.9742 41.878C68.2342 42.138 68.3642 42.5193 68.3642 43.022V58.648C68.3642 59.1333 68.2342 59.5147 67.9742 59.792C67.7316 60.0693 67.3589 60.208 66.8562 60.208C66.3709 60.208 65.9982 60.0693 65.7382 59.792C65.4782 59.5147 65.3482 59.1333 65.3482 58.648V46.61H65.9202L60.4602 56.568C60.2869 56.8627 60.1049 57.0793 59.9142 57.218C59.7236 57.3567 59.4636 57.426 59.1342 57.426C58.8049 57.426 58.5362 57.3567 58.3282 57.218C58.1202 57.062 57.9382 56.8453 57.7822 56.568L52.2702 46.584H52.8942V58.648C52.8942 59.1333 52.7642 59.5147 52.5042 59.792C52.2616 60.0693 51.8889 60.208 51.3862 60.208Z" fill="black"/>
</svg>
